<?xml version="1.0" encoding="utf-8"?>
<!-- Generator: Adobe Illustrator 15.0.2, SVG Export Plug-In  -->
<!DOCTYPE svg PUBLIC "-//W3C//DTD SVG 1.1//EN" "http://www.w3.org/Graphics/SVG/1.1/DTD/svg11.dtd" [
	<!ENTITY ns_flows "http://ns.adobe.com/Flows/1.0/">
]>
<svg version="1.1"
	 xmlns="http://www.w3.org/2000/svg" xmlns:xlink="http://www.w3.org/1999/xlink" xmlns:a="http://ns.adobe.com/AdobeSVGViewerExtensions/3.0/"
	 x="0px" y="0px" width="114px" height="114px" viewBox="3 3 114 114" overflow="visible" enable-background="new 3 3 114 114"
	 xml:space="preserve">
<defs>
</defs>
<rect width="120" height="120"/>
<path fill="#FF0099" d="M53.9,62.7v26.6h10.3v2.4H32.6v-2.4h10.1V30.7H32.6v-2.4h32.6c7.4,0,12.9,1.6,16.6,4.9
	c3.7,3.3,5.6,7.3,5.6,12.1c0,4.9-1.9,9-5.6,12.4c-3.8,3.3-10,5-18.8,5H53.9z M53.9,30.7v29.5H60c3.2,0,5.8-0.3,7.9-0.8
	c2.1-0.5,3.9-2,5.5-4.3c1.5-2.3,2.3-5.9,2.3-10.7c0-4.3-0.7-7.4-2-9.4c-1.3-2-2.9-3.2-4.7-3.7c-1.8-0.5-4.1-0.7-6.8-0.7H53.9z"/>
</svg>
