<?xml version="1.0" encoding="utf-8"?>
<!-- Generator: Adobe Illustrator 15.0.2, SVG Export Plug-In  -->
<!DOCTYPE svg PUBLIC "-//W3C//DTD SVG 1.1//EN" "http://www.w3.org/Graphics/SVG/1.1/DTD/svg11.dtd" [
	<!ENTITY ns_flows "http://ns.adobe.com/Flows/1.0/">
]>
<svg version="1.1"
	 xmlns="http://www.w3.org/2000/svg" xmlns:xlink="http://www.w3.org/1999/xlink" xmlns:a="http://ns.adobe.com/AdobeSVGViewerExtensions/3.0/"
	 x="0px" y="0px" width="57px" height="57px" viewBox="3 3 57 57" overflow="visible" enable-background="new 3 3 57 57"
	 xml:space="preserve">
<defs>
</defs>
<rect width="63" height="63"/>
<path fill="#FF0099" d="M28.4,32.8v13.3h5.1v1.2H17.8v-1.2h5V16.9h-5v-1.2h16.3c3.7,0,6.5,0.8,8.3,2.5c1.9,1.6,2.8,3.7,2.8,6
	c0,2.5-0.9,4.5-2.8,6.2c-1.9,1.7-5,2.5-9.4,2.5H28.4z M28.4,16.9v14.7h3c1.6,0,2.9-0.1,4-0.4c1.1-0.3,2-1,2.7-2.1
	c0.8-1.1,1.1-2.9,1.1-5.3c0-2.1-0.3-3.7-1-4.7c-0.7-1-1.5-1.6-2.4-1.8c-0.9-0.2-2-0.3-3.4-0.3H28.4z"/>
</svg>
