<?xml version="1.0" encoding="utf-8"?>
<!-- Generator: Adobe Illustrator 15.0.2, SVG Export Plug-In  -->
<!DOCTYPE svg PUBLIC "-//W3C//DTD SVG 1.1//EN" "http://www.w3.org/Graphics/SVG/1.1/DTD/svg11.dtd" [
	<!ENTITY ns_flows "http://ns.adobe.com/Flows/1.0/">
]>
<svg version="1.1"
	 xmlns="http://www.w3.org/2000/svg" xmlns:xlink="http://www.w3.org/1999/xlink" xmlns:a="http://ns.adobe.com/AdobeSVGViewerExtensions/3.0/"
	 x="0px" y="0px" width="72px" height="72px" viewBox="2 2 72 72" overflow="visible" enable-background="new 2 2 72 72"
	 xml:space="preserve">
<defs>
</defs>
<rect width="76" height="76"/>
<path fill="#FF0099" d="M34.1,39.7v16.8h6.5V58H20.7v-1.5H27v-37h-6.4V18h20.6c4.7,0,8.2,1,10.5,3.1c2.4,2.1,3.5,4.6,3.5,7.6
	c0,3.1-1.2,5.7-3.6,7.8c-2.4,2.1-6.3,3.1-11.9,3.1H34.1z M34.1,19.5v18.6H38c2,0,3.7-0.2,5-0.5s2.5-1.2,3.4-2.7
	c1-1.5,1.4-3.7,1.4-6.7c0-2.7-0.4-4.7-1.3-5.9c-0.8-1.3-1.8-2-3-2.3c-1.2-0.3-2.6-0.4-4.3-0.4H34.1z"/>
</svg>
