<?xml version="1.0" encoding="utf-8"?>
<!-- Generator: Adobe Illustrator 15.0.2, SVG Export Plug-In  -->
<!DOCTYPE svg PUBLIC "-//W3C//DTD SVG 1.1//EN" "http://www.w3.org/Graphics/SVG/1.1/DTD/svg11.dtd" [
	<!ENTITY ns_flows "http://ns.adobe.com/Flows/1.0/">
]>
<svg version="1.1"
	 xmlns="http://www.w3.org/2000/svg" xmlns:xlink="http://www.w3.org/1999/xlink" xmlns:a="http://ns.adobe.com/AdobeSVGViewerExtensions/3.0/"
	 x="0px" y="0px" width="144px" height="144px" viewBox="3 3 144 144" overflow="visible" enable-background="new 3 3 144 144"
	 xml:space="preserve">
<defs>
</defs>
<rect width="150" height="150"/>
<path fill="#FF0099" d="M67.2,78.4V112h12.9v3H40.3v-3H53V38H40.3v-3h41.2c9.3,0,16.3,2.1,21,6.2c4.7,4.1,7.1,9.2,7.1,15.3
	c0,6.2-2.4,11.4-7.1,15.6c-4.8,4.2-12.7,6.3-23.7,6.3H67.2z M67.2,38v37.2h7.7c4,0,7.4-0.3,10-1s5-2.5,6.9-5.4
	c1.9-2.9,2.9-7.4,2.9-13.5c0-5.4-0.8-9.3-2.5-11.8c-1.7-2.5-3.7-4.1-6-4.7C83.9,38.3,81,38,77.6,38H67.2z"/>
</svg>
